<?xml version="1.0" standalone="no"?>
<!DOCTYPE svg PUBLIC "-//W3C//DTD SVG 20010904//EN"
 "http://www.w3.org/TR/2001/REC-SVG-20010904/DTD/svg10.dtd">
<svg version="1.0" xmlns="http://www.w3.org/2000/svg"
 width="256.000000pt" height="256.000000pt" viewBox="0 0 256.000000 256.000000"
 preserveAspectRatio="xMidYMid meet">

<g transform="translate(0.000000,256.000000) scale(0.100000,-0.100000)"
fill="#000000" stroke="none">
<path d="M490 2362 c-220 -58 -368 -281 -330 -499 13 -79 58 -185 75 -181 7 2
163 129 348 283 l335 280 -31 27 c-52 44 -122 78 -194 93 -86 19 -122 18 -203
-3z m233 -98 c26 -9 47 -19 46 -22 0 -8 -494 -413 -506 -415 -4 -1 -12 24 -17
56 -18 124 44 261 155 339 95 67 207 82 322 42z"/>
<path d="M1850 2366 c-56 -12 -155 -60 -199 -97 -21 -17 -22 -22 -10 -33 43
-42 664 -556 671 -556 11 0 43 67 62 129 72 245 -95 513 -348 560 -73 13 -105
13 -176 -3z m247 -116 c70 -35 139 -105 174 -177 25 -51 37 -167 22 -221 l-8
-34 -250 207 c-138 113 -251 210 -253 215 -3 7 55 32 103 44 50 12 151 -4 212
-34z"/>
<path d="M1097 2140 c-138 -25 -295 -92 -403 -173 -71 -54 -196 -183 -243
-251 -48 -70 -109 -204 -132 -293 -27 -102 -36 -305 -19 -410 30 -189 95 -326
237 -501 l26 -33 -109 -110 -109 -109 33 -32 32 -33 113 112 112 111 55 -44
c30 -24 96 -64 145 -89 326 -161 742 -125 1020 89 l60 46 109 -111 108 -111
35 34 35 35 -113 106 -112 106 42 47 c287 327 317 833 71 1194 -131 191 -340
342 -555 401 -62 17 -114 22 -235 25 -85 1 -177 -1 -203 -6z m361 -96 c167
-34 304 -109 432 -234 48 -47 106 -114 130 -149 205 -305 195 -726 -24 -1017
-58 -77 -171 -185 -244 -231 -213 -137 -497 -176 -738 -102 -232 71 -434 243
-544 464 -63 129 -80 192 -87 342 -11 228 39 404 161 570 132 180 332 314 531
356 95 21 286 21 383 1z"/>
<path d="M1270 1525 l0 -355 -222 -2 -223 -3 -3 -42 -3 -43 270 0 271 0 0 400
0 400 -45 0 -45 0 0 -355z"/>
</g>
</svg>
