<?xml version="1.0" standalone="no"?>
<!DOCTYPE svg PUBLIC "-//W3C//DTD SVG 20010904//EN"
 "http://www.w3.org/TR/2001/REC-SVG-20010904/DTD/svg10.dtd">
<svg version="1.0" xmlns="http://www.w3.org/2000/svg"
 width="256.000000pt" height="256.000000pt" viewBox="0 0 256.000000 256.000000"
 preserveAspectRatio="xMidYMid meet">

<g transform="translate(0.000000,256.000000) scale(0.100000,-0.100000)"
fill="#000000" stroke="none">
<path d="M725 2096 c-107 -34 -195 -111 -243 -214 -23 -49 -27 -70 -27 -152 0
-82 4 -103 27 -152 48 -104 146 -188 247 -214 l46 -11 3 -112 3 -111 -150 0
c-131 0 -152 -2 -172 -19 -20 -16 -22 -23 -14 -47 l10 -29 163 -3 162 -2 0
-275 c0 -235 2 -276 16 -289 19 -19 58 -21 73 -3 7 9 12 106 13 288 l3 274
154 3 c161 3 181 8 181 47 0 48 -24 55 -188 55 l-152 0 0 110 0 109 42 12
c109 29 208 112 254 212 26 55 29 73 29 162 0 91 -3 105 -29 155 -40 77 -74
116 -131 154 -91 61 -223 83 -320 52z m196 -103 c78 -25 152 -101 175 -178 48
-166 -54 -332 -223 -360 -185 -30 -355 147 -314 329 22 101 90 176 188 212 52
18 111 17 174 -3z"/>
<path d="M1537 1932 c-97 -98 -177 -183 -177 -188 0 -21 32 -54 53 -54 15 0
61 39 142 120 66 66 123 120 127 120 5 0 8 -162 8 -360 l0 -359 -42 -12 c-113
-30 -205 -105 -255 -207 -25 -51 -28 -67 -28 -162 0 -93 3 -112 27 -162 34
-74 107 -146 183 -184 54 -26 70 -29 160 -29 88 0 107 3 157 27 116 54 196
159 220 286 34 184 -91 382 -271 428 l-46 11 -3 364 -2 364 123 -123 c125
-125 149 -139 181 -106 33 33 19 54 -157 231 -132 133 -178 173 -197 173 -20
0 -66 -41 -203 -178z m315 -850 c57 -25 109 -77 138 -137 28 -58 31 -160 6
-218 -75 -179 -297 -232 -440 -106 -72 63 -91 107 -91 209 0 75 3 91 27 132
36 60 101 115 158 133 57 19 144 13 202 -13z"/>
</g>
</svg>
