<?xml version="1.0" standalone="no"?>
<!DOCTYPE svg PUBLIC "-//W3C//DTD SVG 20010904//EN"
 "http://www.w3.org/TR/2001/REC-SVG-20010904/DTD/svg10.dtd">
<svg version="1.0" xmlns="http://www.w3.org/2000/svg"
 width="256.000000pt" height="256.000000pt" viewBox="0 0 256.000000 256.000000"
 preserveAspectRatio="xMidYMid meet">

<g transform="translate(0.000000,256.000000) scale(0.100000,-0.100000)"
fill="#000000" stroke="none">
<path d="M1018 2330 c-355 -118 -611 -389 -710 -750 -20 -74 -23 -108 -23
-265 0 -157 3 -191 23 -265 99 -363 366 -643 717 -753 241 -76 534 -58 759 47
139 64 293 181 376 286 l29 37 -152 -5 c-173 -5 -276 10 -409 58 -458 167
-752 633 -699 1108 19 167 82 350 158 464 44 64 46 68 31 67 -7 0 -52 -13
-100 -29z"/>
<path d="M1465 1929 c-13 -20 10 -28 90 -31 l80 -3 -88 -58 c-48 -33 -86 -64
-84 -70 2 -8 43 -12 128 -12 104 0 124 2 124 15 0 12 -18 16 -82 20 l-82 5 85
55 c116 76 111 84 -43 88 -81 2 -124 -1 -128 -9z"/>
<path d="M1875 1739 c-13 -19 6 -24 118 -29 l111 -5 -117 -93 c-65 -51 -117
-98 -114 -105 2 -8 48 -13 155 -15 146 -2 152 -2 152 17 0 19 -8 21 -116 23
l-116 3 125 100 c69 54 123 103 121 107 -8 12 -312 10 -319 -3z"/>
<path d="M1476 1254 c-12 -11 -13 -20 -6 -35 14 -25 34 -29 168 -32 l114 -2
-142 -113 c-77 -62 -144 -120 -147 -128 -3 -8 0 -21 7 -29 19 -23 412 -22 431
1 9 11 10 20 2 32 -8 14 -34 18 -153 22 l-142 5 134 106 c165 133 173 141 158
168 -10 20 -18 21 -210 21 -167 0 -201 -2 -214 -16z"/>
</g>
</svg>
