<?xml version="1.0" standalone="no"?>
<!DOCTYPE svg PUBLIC "-//W3C//DTD SVG 20010904//EN"
 "http://www.w3.org/TR/2001/REC-SVG-20010904/DTD/svg10.dtd">
<svg version="1.0" xmlns="http://www.w3.org/2000/svg"
 width="172.000000pt" height="192.000000pt" viewBox="0 0 172.000000 192.000000"
 preserveAspectRatio="xMidYMid meet">

<g transform="translate(0.000000,192.000000) scale(0.100000,-0.100000)"
fill="#000000" stroke="none">
<path d="M750 1902 c-134 -45 -228 -144 -261 -276 l-11 -46 -178 0 c-167 0
-179 -1 -210 -22 -44 -30 -69 -66 -80 -114 -12 -51 -12 -1257 0 -1308 11 -48
36 -84 80 -113 l33 -23 735 0 c722 0 735 0 771 21 20 11 48 36 61 56 l25 37 0
676 0 676 -25 37 c-47 69 -75 77 -273 77 l-175 0 -7 38 c-20 109 -124 231
-232 272 -79 31 -182 35 -253 12z m-386 -449 c38 -212 213 -382 426 -414 254
-39 509 140 563 396 l11 55 102 0 c87 0 105 -3 128 -21 l26 -20 0 -659 0 -659
-26 -20 c-26 -21 -34 -21 -734 -21 -700 0 -708 0 -734 21 l-26 20 0 659 0 659
26 20 c23 18 41 21 129 21 l103 0 6 -37z"/>
<path d="M472 1068 c-20 -20 -14 -54 14 -88 21 -25 33 -30 58 -28 28 3 31 7
34 42 3 29 -2 44 -19 62 -24 26 -67 32 -87 12z"/>
<path d="M1161 1054 c-37 -47 -26 -104 20 -104 34 0 66 28 75 66 9 36 -6 58
-43 62 -23 2 -36 -3 -52 -24z"/>
<path d="M374 1015 c-18 -45 37 -103 71 -75 34 28 4 90 -44 90 -12 0 -24 -7
-27 -15z"/>
<path d="M1276 1008 c-19 -27 -20 -50 -4 -66 31 -31 82 6 76 55 -4 38 -48 45
-72 11z"/>
<path d="M320 960 c-24 -15 -1 -64 33 -68 24 -3 27 0 27 27 0 20 -7 34 -19 41
-24 12 -22 12 -41 0z"/>
<path d="M1355 954 c-34 -34 4 -84 40 -54 20 16 19 56 -1 64 -21 8 -20 8 -39
-10z"/>
<path d="M474 919 c-50 -14 -126 -70 -159 -117 -24 -36 -30 -54 -29 -96 0 -46
7 -65 57 -147 31 -52 73 -134 93 -184 51 -126 69 -159 104 -189 38 -31 82 -34
127 -6 67 40 63 127 -11 280 -52 107 -56 136 -29 265 14 69 15 89 4 124 -20
68 -77 93 -157 70z"/>
<path d="M1142 917 c-57 -32 -68 -84 -44 -209 24 -117 19 -145 -38 -258 -43
-86 -60 -168 -46 -224 8 -32 60 -66 99 -66 69 0 109 49 167 201 22 57 54 126
72 154 55 87 88 157 88 189 -1 126 -199 268 -298 213z"/>
<path d="M273 903 c-30 -12 -6 -63 29 -63 21 0 25 39 6 58 -13 13 -16 13 -35
5z"/>
<path d="M1412 898 c-19 -19 -15 -58 6 -58 37 0 58 52 26 64 -20 8 -18 8 -32
-6z"/>
<path d="M234 825 c-7 -18 13 -45 33 -45 19 0 28 27 13 45 -16 19 -39 19 -46
0z"/>
<path d="M1440 820 c-9 -16 -9 -25 -1 -33 16 -16 46 4 46 29 0 27 -31 29 -45
4z"/>
</g>
</svg>
